<?xml version="1.0" encoding="utf-8"?>
<!-- Generator: Adobe Illustrator 26.0.1, SVG Export Plug-In . SVG Version: 6.00 Build 0)  -->
<svg version="1.1" id="Слой_1" xmlns="http://www.w3.org/2000/svg" xmlns:xlink="http://www.w3.org/1999/xlink" x="0px" y="0px"
	 viewBox="0 0 21 21" style="enable-background:new 0 0 21 21;" xml:space="preserve">
<g>
	<path d="M10.5,0C4.7,0,0,4.7,0,10.5C0,16.3,4.7,21,10.5,21C16.3,21,21,16.3,21,10.5C21,4.7,16.3,0,10.5,0z M10.5,18.6
		c-4.5,0-8.1-3.6-8.1-8.1C2.4,6,6,2.4,10.5,2.4c4.5,0,8.1,3.6,8.1,8.1C18.6,15,15,18.6,10.5,18.6z"/>
	<path d="M16.3,13.3c-1-0.8-2.1-1.6-3.2-2.3c-0.5-0.3-1-0.7-1.5-1c1.2-1.2,2.5-2.4,3.8-3.4c0.5-0.4,0.6-1.2,0.2-1.7
		c-0.4-0.5-1.2-0.6-1.7-0.2c0,0-2.1,1.7-4.2,3.8c-1-0.9-2-1.8-2.9-3.1C6.3,4.8,5.6,4.7,5.1,5.1C4.5,5.5,4.4,6.3,4.8,6.8
		c1,1.4,2.1,2.4,3.2,3.3c-1.6,1.7-3,3.5-3.3,4.7c-0.1,0.6,0.3,1.3,0.9,1.4c0.1,0,0.2,0,0.3,0c0.6,0,1-0.4,1.2-0.9
		c0.1-0.6,1.2-2,2.8-3.7c0.6,0.5,1.2,0.9,1.9,1.3c1.1,0.7,2.1,1.4,3,2.2c0.2,0.2,0.5,0.3,0.8,0.3c0.3,0,0.7-0.1,0.9-0.4
		C16.9,14.5,16.8,13.7,16.3,13.3z"/>
</g>
</svg>
