<?xml version="1.0" encoding="utf-8"?>
<!-- Generator: Adobe Illustrator 26.0.1, SVG Export Plug-In . SVG Version: 6.00 Build 0)  -->
<svg version="1.1" id="Слой_1" xmlns="http://www.w3.org/2000/svg" xmlns:xlink="http://www.w3.org/1999/xlink" x="0px" y="0px"
	 viewBox="0 0 21 21" style="enable-background:new 0 0 21 21;" xml:space="preserve">
<path d="M10.5,0C4.7,0,0,4.7,0,10.5C0,16.3,4.7,21,10.5,21C16.3,21,21,16.3,21,10.5C21,4.7,16.3,0,10.5,0z M10.5,18.6
	c-4.5,0-8.1-3.6-8.1-8.1C2.4,6,6,2.4,10.5,2.4c1.9,0,3.7,0.7,5.1,1.8c-2.7,1.8-5.1,5.3-6.4,7.6L6.9,9.2C6.5,8.7,5.7,8.7,5.2,9.1
	c-0.5,0.4-0.5,1.2-0.1,1.7l3.5,4c0.2,0.3,0.6,0.4,0.9,0.4c0.1,0,0.1,0,0.2,0c0.4-0.1,0.8-0.4,0.9-0.8c0.6-1.6,3.6-6.6,6.5-8.4
	c0,0,0,0,0.1-0.1c0.9,1.3,1.4,2.9,1.4,4.5C18.6,15,15,18.6,10.5,18.6z"/>
</svg>
