<svg viewBox="0 0 375 142" fill="none" xmlns="http://www.w3.org/2000/svg">
<path d="M284.706 60.9121C283.379 68.0114 282.076 75.1107 280.799 82.21C279.522 89.3092 278.373 96.1531 277.352 102.742C276.33 109.33 275.411 115.51 274.594 121.281C273.828 127.053 273.24 132.186 272.832 136.68C272.372 138.57 271.683 139.796 270.763 140.358C269.844 140.919 268.107 140.945 265.554 140.434C263.153 139.923 260.727 139.259 258.276 138.442C255.824 137.676 253.551 136.757 251.457 135.684C248.853 134.459 247.091 133.131 246.171 131.701C245.201 130.219 244.818 128.1 245.022 125.342C245.022 121.256 245.201 116.276 245.558 110.403C245.916 104.478 246.452 98.0684 247.167 91.1734C247.831 84.2784 248.597 77.1281 249.465 69.7224C250.283 62.2656 251.202 54.9365 252.223 47.7351C253.194 40.4826 254.19 33.6387 255.211 27.2034C256.182 20.7681 257.127 15.0989 258.046 10.1958C259.016 6.62061 260.344 4.3989 262.03 3.53064C263.766 2.66239 266.473 2.48363 270.15 2.99437C275.769 3.81155 280.544 4.75642 284.477 5.82897C288.409 6.85045 292.368 8.10176 296.351 9.5829C298.854 10.5022 300.82 11.5237 302.25 12.6473C303.731 13.7199 304.881 14.9201 305.698 16.248C306.566 17.5249 307.179 18.955 307.536 20.5382C307.894 22.1215 308.303 23.9091 308.762 25.901C308.762 26.8203 308.839 27.944 308.992 29.2719C309.145 30.5487 309.452 32.8726 309.911 36.2435C310.371 39.6143 311.061 44.3897 311.98 50.5697C312.95 56.6985 314.278 65.1513 315.964 75.9279C317.649 72.1484 319.615 68.0114 321.863 63.5169C324.11 59.0224 326.434 54.4258 328.834 49.727C331.235 45.0282 333.712 40.3294 336.266 35.6306C338.819 30.9318 341.296 26.4884 343.697 22.3003C346.097 17.4993 348.191 13.5667 349.979 10.5022C351.766 7.38672 353.605 5.01179 355.495 3.37742C357.385 1.74306 359.504 0.823729 361.854 0.619433C364.203 0.415138 367.216 0.823729 370.894 1.84521C375.184 3.01991 379.704 4.3989 384.454 5.98219C389.204 7.51441 393.877 9.32753 398.474 11.4216C401.487 12.9027 403.377 14.6137 404.143 16.5545C404.96 18.4953 404.807 21.1767 403.683 24.5986C402.1 29.5528 400.312 35.222 398.32 41.6062C396.328 47.9905 394.311 54.6811 392.268 61.6782C390.225 68.6754 388.182 75.8002 386.139 83.0527C384.096 90.2541 382.155 97.1491 380.317 103.738C378.529 110.326 376.895 116.404 375.414 121.971C373.933 127.487 372.783 132.058 371.966 135.684C371.251 137.574 370.408 138.927 369.438 139.745C368.519 140.613 366.68 140.741 363.922 140.128C361.522 139.617 359.07 138.979 356.567 138.212C354.065 137.497 351.869 136.604 349.979 135.531C347.578 134.407 345.97 133.054 345.152 131.471C344.386 129.887 344.284 127.793 344.846 125.189C345.255 122.073 345.918 118.038 346.838 113.084C347.808 108.079 348.906 102.588 350.132 96.6128C351.409 90.5861 352.788 84.2784 354.269 77.6899C355.801 71.1014 357.461 64.7171 359.249 58.5372C356.133 63.951 352.813 69.8501 349.289 76.2343C345.765 82.6185 342.343 88.9006 339.024 95.0806C335.755 101.261 332.741 107.108 329.983 112.624C327.225 118.089 325.004 122.66 323.318 126.338C322.808 127.461 322.348 128.381 321.939 129.096C321.582 129.76 321.148 130.245 320.637 130.551C320.126 130.858 319.437 131.037 318.568 131.088C317.751 131.139 316.679 131.011 315.351 130.705C311.163 129.887 307.485 128.943 304.319 127.87C303.195 127.461 302.199 127.027 301.331 126.568C300.514 126.057 299.773 125.418 299.109 124.652C298.496 123.886 297.96 122.941 297.5 121.818C297.041 120.643 296.556 119.162 296.045 117.374C293.951 109.815 291.933 101.133 289.993 91.3266C288.052 81.4694 286.29 71.3312 284.706 60.9121Z" fill="url(#paint0_linear_322_2269)"/>
<path d="M231.467 14.2546C235.502 17.6254 238.413 21.0985 240.201 24.6736C241.988 28.1977 243.291 32.1049 244.108 36.3951C245.283 43.903 245.538 52.1514 244.874 61.1404C244.261 70.0783 242.754 78.9396 240.354 87.7243C237.953 96.5091 234.634 104.809 230.394 112.623C226.155 120.386 221.022 126.872 214.996 132.082C210.705 135.657 206.288 137.904 201.742 138.824C197.248 139.794 192.038 140.024 186.113 139.513C182.334 139.156 178.401 138.517 174.315 137.598C170.229 136.679 166.297 135.325 162.517 133.538C160.117 132.261 157.538 130.473 154.78 128.175C152.022 125.877 149.8 123.272 148.114 120.361C145.918 115.56 144.258 110.12 143.135 104.042C141.96 97.9647 141.424 91.606 141.526 84.9664C141.628 78.3268 142.343 71.5595 143.671 64.6645C144.948 57.7695 146.914 51.0533 149.57 44.5158C152.277 37.9784 155.622 31.7984 159.606 25.976C163.641 20.1536 168.442 14.9951 174.009 10.5006C177.788 7.58943 182.206 5.4954 187.263 4.21855C192.319 2.89063 197.043 2.58419 201.436 3.29922C207.411 4.21855 213.029 5.59755 218.29 7.43621C223.602 9.27487 227.994 11.5477 231.467 14.2546ZM206.952 30.2662C204.755 29.6533 202.227 30.4961 199.367 32.7944C196.558 35.0927 193.749 38.3104 190.94 42.4474C188.131 46.5843 185.501 51.3597 183.049 56.7736C180.597 62.1363 178.631 67.5246 177.15 72.9385C175.771 78.1991 174.801 83.4341 174.239 88.6437C173.677 93.8532 173.575 98.6286 173.932 102.97C174.29 107.311 175.107 111.014 176.384 114.078C177.712 117.092 179.525 118.982 181.823 119.748C184.019 120.361 186.343 119.875 188.795 118.292C191.297 116.709 193.723 114.232 196.073 110.861C198.422 107.439 200.644 103.276 202.738 98.3733C204.832 93.4702 206.543 88.0308 207.871 82.0551C209.148 77.0499 210.169 71.8148 210.935 66.3499C211.753 60.834 212.212 55.4457 212.314 50.185C212.519 44.8734 212.187 40.3789 211.318 36.7015C210.501 33.0242 209.046 30.8791 206.952 30.2662Z" fill="url(#paint1_linear_322_2269)"/>
<path d="M85.5246 114.999C89.8148 114.284 94.2582 113.773 98.8549 113.467C103.503 113.109 107.486 112.879 110.806 112.777C113.207 112.675 115.199 113.032 116.782 113.85C118.365 114.616 119.821 115.944 121.149 117.833C122.425 119.417 123.6 121.204 124.673 123.196C125.796 125.137 126.614 126.899 127.124 128.482C127.993 130.372 128.069 131.649 127.354 132.313C126.69 132.926 125.158 133.385 122.757 133.692C118.978 133.896 114.611 134.254 109.657 134.764C104.703 135.275 99.6976 135.862 94.6413 136.526C89.636 137.139 84.8351 137.803 80.2385 138.518C75.6418 139.284 71.8113 139.974 68.7468 140.587C66.4485 140.995 64.5588 141.225 63.0776 141.276C61.6476 141.327 60.4218 141.251 59.4003 141.046C58.4299 140.842 57.5617 140.536 56.7955 140.127C56.0805 139.719 55.3655 139.182 54.6504 138.518C53.7311 137.905 52.6841 137.139 51.5094 136.22C50.3858 135.25 49.2366 134.254 48.0619 133.232C46.8872 132.16 45.7636 131.087 44.691 130.015C43.5674 128.891 42.597 127.869 41.7798 126.95C41.0648 126.184 40.4264 125.341 39.8646 124.422C39.2517 123.503 38.8431 122.558 38.6388 121.587C38.4345 120.566 38.5111 119.595 38.8686 118.676C39.2261 117.706 40.0433 116.735 41.3202 115.765C46.8361 111.679 52.633 106.904 58.7108 101.439C64.7886 95.9227 70.6876 90.279 76.4079 84.5077C82.1793 78.6853 87.5676 72.9139 92.5728 67.1936C97.6291 61.4223 101.868 56.1617 105.29 51.4118C108.763 46.6109 111.189 42.6016 112.568 39.3839C113.998 36.1152 114.049 34.0212 112.721 33.1018C111.445 32.1825 109.81 32.0037 107.818 32.5655C105.826 33.1274 103.63 34.1999 101.23 35.7832C98.8293 37.3665 96.2757 39.3328 93.5687 41.6822C90.8618 44.0316 88.1804 46.4576 85.5246 48.9603C83.5838 50.4414 81.3876 51.5395 78.9361 52.2545C76.5356 52.9696 74.0585 53.3782 71.5048 53.4803C68.9511 53.5824 66.3719 53.4548 63.7671 53.0972C61.1624 52.7397 58.7108 52.1524 56.4125 51.3352C55.0335 50.8755 53.8843 50.2882 52.965 49.5731C52.0967 48.8581 51.5349 47.9132 51.2796 46.7385C51.0242 45.5128 51.1519 44.0061 51.6626 42.2185C52.1734 40.4309 53.1182 38.2347 54.4972 35.63C59.5025 27.2539 65.6569 20.2312 72.9604 14.562C80.3151 8.84173 88.3337 5.18995 97.0162 3.60666C102.124 2.68733 106.95 2.66179 111.496 3.53005C116.041 4.3983 120.229 5.80283 124.06 7.74364C127.89 9.68445 131.236 12.0083 134.096 14.7152C137.007 17.3711 139.28 19.9503 140.914 22.4529C143.11 26.1813 144.515 29.782 145.128 33.255C145.792 36.7281 145.792 40.1756 145.128 43.5975C144.515 46.9684 143.391 50.3648 141.757 53.7867C140.174 57.1576 138.233 60.6306 135.935 64.2058C133.432 68.2407 130.291 72.5309 126.511 77.0764C122.732 81.5709 118.62 86.0654 114.177 90.5599C109.734 95.0544 105.06 99.3957 100.157 103.584C95.2542 107.772 90.3766 111.577 85.5246 114.999Z" fill="url(#paint2_linear_322_2269)"/>
<path d="M42.3141 23.9845C40.8329 28.9386 39.2241 34.5057 37.4876 40.6856C35.7511 46.8145 34.0146 53.2753 32.2781 60.0681C30.5926 66.861 28.8816 73.807 27.1451 80.9063C25.4086 87.9545 23.7743 94.8239 22.242 101.515C20.7609 108.205 19.4074 114.538 18.1817 120.514C17.007 126.49 15.9855 131.776 15.1172 136.373C14.6065 138.109 13.8915 139.233 12.9721 139.743C12.1039 140.305 10.3163 140.229 7.60938 139.514C5.10676 138.85 2.62967 138.237 0.178127 137.675C-2.27342 137.113 -4.77604 136.194 -7.32973 134.917C-9.27054 133.793 -10.5474 132.44 -11.1603 130.857C-11.8242 129.273 -12.0541 127.128 -11.8498 124.421C-11.6455 120.54 -11.1347 115.33 -10.3176 108.793C-9.55145 102.255 -8.58104 95.1559 -7.40634 87.4948C-6.18057 79.7827 -4.82711 71.8918 -3.34597 63.8221C-1.81375 55.7013 -0.256001 48.1169 1.32729 41.0687C-0.766739 40.0472 -2.50325 39.1534 -3.88225 38.3873C-5.21017 37.5701 -6.18057 36.7529 -6.79346 35.9357C-7.35527 35.1186 -7.5851 34.2248 -7.48295 33.2544C-7.38081 32.2329 -6.94668 30.9305 -6.18057 29.3472C-4.39298 25.6699 -2.29896 21.9415 0.101517 18.162C2.50199 14.3315 4.74924 10.9862 6.84327 8.12602C7.86475 6.90024 8.75854 5.92984 9.52465 5.21481C10.3418 4.4487 11.1845 3.91242 12.0528 3.60598C12.9721 3.29954 13.9936 3.19739 15.1172 3.29954C16.2919 3.40168 17.6709 3.65705 19.2542 4.06564C22.3697 4.9339 25.4086 6.08306 28.3709 7.51313C31.3843 8.89213 34.3976 10.6286 37.411 12.7227C40.22 14.6124 41.9821 16.2978 42.6971 17.779C43.4632 19.209 43.3356 21.2775 42.3141 23.9845Z" fill="url(#paint3_linear_322_2269)"/>
<defs>
<linearGradient id="paint0_linear_322_2269" x1="324.814" y1="0.568359" x2="324.814" y2="140.799" gradientUnits="userSpaceOnUse">
<stop stop-color="#0A101F"/>
<stop offset="1" stop-color="#1C2B4A"/>
</linearGradient>
<linearGradient id="paint1_linear_322_2269" x1="193.374" y1="2.92383" x2="193.374" y2="139.777" gradientUnits="userSpaceOnUse">
<stop stop-color="#0A101F"/>
<stop offset="1" stop-color="#1C2B4A"/>
</linearGradient>
<linearGradient id="paint2_linear_322_2269" x1="92.0766" y1="2.89746" x2="92.0766" y2="141.292" gradientUnits="userSpaceOnUse">
<stop stop-color="#0A101F"/>
<stop offset="1" stop-color="#1C2B4A"/>
</linearGradient>
<linearGradient id="paint3_linear_322_2269" x1="15.6339" y1="3.26123" x2="15.6339" y2="140.114" gradientUnits="userSpaceOnUse">
<stop stop-color="#0A101F"/>
<stop offset="1" stop-color="#1C2B4A"/>
</linearGradient>
</defs>
</svg>
