<?xml version="1.0" encoding="utf-8"?>
<!-- Generator: Adobe Illustrator 26.0.1, SVG Export Plug-In . SVG Version: 6.00 Build 0)  -->
<svg version="1.1" id="Слой_1" xmlns="http://www.w3.org/2000/svg" xmlns:xlink="http://www.w3.org/1999/xlink" x="0px" y="0px"
	 viewBox="0 0 19 19" style="enable-background:new 0 0 19 19;" xml:space="preserve">
<path d="M3.4,1C2.8,0.3,1.7,0.3,1,1C0.3,1.7,0.3,2.8,1,3.4l6.1,6.1L1,15.6c-0.7,0.7-0.7,1.8,0,2.4c0.7,0.7,1.8,0.7,2.4,0l6.1-6.1
	l6.1,6.1c0.7,0.7,1.8,0.7,2.4,0c0.7-0.7,0.7-1.8,0-2.4l-6.1-6.1L18,3.4c0.7-0.7,0.7-1.8,0-2.4c-0.7-0.7-1.8-0.7-2.4,0L9.5,7.1L3.4,1
	z"/>
</svg>
