<?xml version="1.0" encoding="utf-8"?>
<!-- Generator: Adobe Illustrator 26.0.1, SVG Export Plug-In . SVG Version: 6.00 Build 0)  -->
<svg version="1.1" id="Слой_1" xmlns="http://www.w3.org/2000/svg" xmlns:xlink="http://www.w3.org/1999/xlink" x="0px" y="0px"
	 viewBox="0 0 18 18" style="enable-background:new 0 0 18 18;" xml:space="preserve">
<path d="M17.6,7c-0.1-0.5-0.6-0.6-1.1-0.6c-0.5,0-4.3-0.1-4.6-0.2c-0.3-0.1-2.1-4.6-2.1-4.6C9.7,1.4,9.6,1.3,9.5,1.2
	C9.3,1.1,9.1,1,8.9,1c0,0-0.5,0.1-0.7,0.8c-0.3,0.7-1.7,4-1.7,4c0,0.2-0.1,0.3-0.2,0.4S6,6.4,5.8,6.4H1.3c0,0-0.8,0-0.8,0.5
	c0,0.5,2.5,2.5,2.9,2.7c0.5,0.2,1,0.2,1.5,0.2L9.4,9c0.1,0,0.2,0,0.4,0c0.1,0,0.2,0.1,0.3,0.1c0.3,0.2-0.3,0.6-0.3,0.6
	s-4,1.7-4.6,2.2s-1.3,1.7-1.8,4c-0.6,2.3,3-0.2,3-0.2l2-1.2c0.1-0.1,0.3-0.2,0.5-0.2c0.2,0,0.3,0,0.5,0.1c0.5,0.3,3.5,2.2,3.5,2.2
	s0.9,0.7,1.5,0.3c0.7-0.5-1-5-1-5c-0.1-0.2-0.1-0.4-0.1-0.5c0-0.2,0.1-0.3,0.2-0.5c0.4-0.3,3.7-2.8,3.7-2.8c0.1-0.1,0.2-0.3,0.3-0.4
	C17.6,7.4,17.6,7.2,17.6,7z"/>
</svg>
