<svg width="1024" height="1024" viewBox="0 0 1024 1024" fill="none" xmlns="http://www.w3.org/2000/svg">
<g clip-path="url(#clip0_85_2492)">
<rect width="1024" height="1024" rx="512" fill="white"/>
<rect width="1024" height="1024" fill="#DA2027"/>
<path d="M0 683.258V359.672L512.887 511.704L0 683.258Z" fill="url(#paint0_linear_85_2492)"/>
<path d="M1024 683.258V359.672L511.113 511.704L1024 683.258Z" fill="url(#paint1_linear_85_2492)"/>
<path d="M98.2727 205.81L174.843 125.97L513.481 513.852L98.2727 205.81Z" fill="url(#paint2_linear_85_2492)"/>
<path d="M837.326 914.594L913.896 834.754L512.201 512.622L837.326 914.594Z" fill="url(#paint3_linear_85_2492)"/>
<path d="M924.545 205.81L847.975 125.97L509.336 513.852L924.545 205.81Z" fill="url(#paint4_linear_85_2492)"/>
<path d="M185.491 914.594L108.921 834.754L510.617 512.622L185.491 914.594Z" fill="url(#paint5_linear_85_2492)"/>
<path d="M340.15 0H663.736L511.704 512.887L340.15 0Z" fill="url(#paint6_linear_85_2492)"/>
<path d="M340.15 1024H663.736L511.704 511.113L340.15 1024Z" fill="url(#paint7_linear_85_2492)"/>
<path d="M315.066 368.958C315.066 368.958 266.004 254.663 174.368 241.203C174.368 241.203 209.828 349.437 233.592 365.464C233.592 365.464 214.57 341.503 170 342.751C170 342.751 194.745 398.945 268.339 404.757C268.339 404.757 289.733 374.2 315.048 368.958H315.066Z" fill="#B4788A" stroke="#563C44" stroke-width="18" stroke-miterlimit="10"/>
<path d="M662.36 351.645C662.36 351.645 718.536 240.684 810.813 233C810.813 233 768.614 338.791 743.869 353.285C743.869 353.285 764.371 330.555 808.763 334.637C808.763 334.637 780.523 389.173 706.698 390.314C706.698 390.314 687.265 358.473 662.342 351.645H662.36Z" fill="#B4788A" stroke="#563C44" stroke-width="18" stroke-miterlimit="10"/>
<path d="M483.849 385.124C483.849 385.124 398.578 345.778 314.965 371.182C231.37 396.587 222.349 554.525 224.595 605.905C226.841 657.286 228.107 651.67 228.107 651.67L238.305 629.046L240.997 700.643L252.942 690.784L265.225 727.046L291.183 713.176L316.177 775.36L342.367 755.732L367.415 790.247L390.27 768.176L423.217 806.488L454.326 780.156L481.906 809.019L514.407 776.983L570.511 812.835L598.715 773.702L633.551 794.793L670.259 745.641L703.241 756.284L723.778 707.596L746.741 709.735L757.723 668.695L768.633 682.993L770.808 632.362L780.525 647.765C780.525 647.765 780.828 560.159 768.758 519.279C756.671 478.4 715.613 355.369 649.186 350.431C591.887 346.17 541.933 344.637 483.832 385.16L483.849 385.124Z" fill="#B4788A" stroke="#563C44" stroke-width="19" stroke-miterlimit="10"/>
<path d="M233.073 576.134C233.073 576.134 263.024 670.836 358.03 673.279C453.035 675.721 486.872 613.216 486.872 613.216C486.872 613.216 539.536 673.1 648.626 670.872C757.715 668.644 775.472 588.453 775.472 588.453L485.197 480.291L233.056 576.152L233.073 576.134Z" fill="#DBC2CB" stroke="#724D5A" stroke-width="14" stroke-miterlimit="10"/>
<path d="M197.233 448.842L485.209 480.29C485.209 480.29 456.862 640.885 334.134 629.582C222.139 619.277 206.522 528.711 197.233 448.842Z" fill="#F6C42F" stroke="#E26726" stroke-width="19" stroke-miterlimit="10"/>
<path d="M831.209 402.704L483.189 480.184C483.189 480.184 532.341 652.795 688.889 626.784C832.849 602.859 828.196 475.959 831.209 402.722V402.704Z" fill="#F6C42F" stroke="#E26726" stroke-width="19" stroke-miterlimit="10"/>
<path d="M483.191 478.188L222.51 414.756C218.535 413.758 216.288 419.178 219.818 421.281L239.233 432.852L177.388 427.378C171.629 426.861 169.401 434.67 174.535 437.291L197.23 448.843L483.173 478.188H483.191Z" fill="#DBC2CB" stroke="#724D5A" stroke-width="14" stroke-miterlimit="10" stroke-linejoin="bevel"/>
<path d="M480.004 478.189L791.993 364.5C796.343 362.824 799.606 368.618 795.915 371.471L775.609 387.177L844.568 372.54C850.986 371.185 856.477 392.846 851.022 396.501L831.197 402.687L480.004 478.171V478.189Z" fill="#DBC2CB" stroke="#724D5A" stroke-width="14" stroke-miterlimit="10" stroke-linejoin="bevel"/>
<path d="M737.922 427.396C740.845 434.118 742.896 441.356 743.84 449.004C749.207 492.005 718.721 531.209 675.72 536.575C632.719 541.941 593.515 511.455 588.131 468.454C587.81 465.851 587.614 463.266 587.561 460.717L737.922 427.396Z" fill="#12102D"/>
<path d="M286.659 462.178C285.197 466.884 284.377 471.858 284.288 477.028C283.86 506.106 307.072 530.013 336.132 530.441C365.209 530.869 389.116 507.657 389.544 478.597C389.562 476.832 389.509 475.103 389.366 473.392L286.641 462.196L286.659 462.178Z" fill="#12102D"/>
<path d="M448.589 636.944C448.589 636.944 477.577 693.334 481.018 694.921C484.441 696.49 488.256 696.793 492.321 692.015C496.386 687.237 523.555 632.148 523.555 632.148C523.555 632.148 507.154 596.885 489.754 588.167C472.354 579.467 446.931 620.489 448.589 636.944Z" fill="#F6C42F" stroke="#913F1F" stroke-width="17" stroke-miterlimit="10"/>
<path d="M335.823 486.212L285.424 489.225C285.424 489.225 287.545 502.364 298.135 514.024L335.823 486.212Z" fill="white"/>
<path d="M666.631 469.222L592.057 485.855C592.057 485.855 598.386 504.967 616.998 519.835L666.631 469.222Z" fill="white"/>
</g>
<defs>
<linearGradient id="paint0_linear_85_2492" x1="0" y1="521.465" x2="512.887" y2="521.465" gradientUnits="userSpaceOnUse">
<stop stop-color="#DB1D1D"/>
<stop offset="1" stop-color="#F74747"/>
</linearGradient>
<linearGradient id="paint1_linear_85_2492" x1="1024" y1="521.465" x2="511.113" y2="521.465" gradientUnits="userSpaceOnUse">
<stop stop-color="#DB1D1D"/>
<stop offset="1" stop-color="#F74747"/>
</linearGradient>
<linearGradient id="paint2_linear_85_2492" x1="136.558" y1="165.89" x2="506.725" y2="520.896" gradientUnits="userSpaceOnUse">
<stop stop-color="#DB1D1D"/>
<stop offset="1" stop-color="#F74747"/>
</linearGradient>
<linearGradient id="paint3_linear_85_2492" x1="875.611" y1="874.674" x2="505.444" y2="519.667" gradientUnits="userSpaceOnUse">
<stop stop-color="#DB1D1D"/>
<stop offset="1" stop-color="#F74747"/>
</linearGradient>
<linearGradient id="paint4_linear_85_2492" x1="886.26" y1="165.89" x2="516.093" y2="520.896" gradientUnits="userSpaceOnUse">
<stop stop-color="#DB1D1D"/>
<stop offset="1" stop-color="#F74747"/>
</linearGradient>
<linearGradient id="paint5_linear_85_2492" x1="147.206" y1="874.674" x2="517.373" y2="519.667" gradientUnits="userSpaceOnUse">
<stop stop-color="#DB1D1D"/>
<stop offset="1" stop-color="#F74747"/>
</linearGradient>
<linearGradient id="paint6_linear_85_2492" x1="501.943" y1="0" x2="501.943" y2="512.887" gradientUnits="userSpaceOnUse">
<stop stop-color="#DB1D1D"/>
<stop offset="1" stop-color="#F74747"/>
</linearGradient>
<linearGradient id="paint7_linear_85_2492" x1="501.943" y1="1024" x2="501.943" y2="511.113" gradientUnits="userSpaceOnUse">
<stop stop-color="#DB1D1D"/>
<stop offset="1" stop-color="#F74747"/>
</linearGradient>
<clipPath id="clip0_85_2492">
<rect width="1024" height="1024" rx="512" fill="white"/>
</clipPath>
</defs>
</svg>
