<?xml version="1.0" encoding="utf-8"?>
<!-- Generator: Adobe Illustrator 26.0.1, SVG Export Plug-In . SVG Version: 6.00 Build 0)  -->
<svg version="1.1" id="Слой_1" xmlns="http://www.w3.org/2000/svg" xmlns:xlink="http://www.w3.org/1999/xlink" x="0px" y="0px"
	 viewBox="0 0 21 20" style="enable-background:new 0 0 21 20;" xml:space="preserve">
<g>
	<path d="M10.5,0C5,0,0.5,4.5,0.5,10s4.5,10,10,10s10-4.5,10-10S16,0,10.5,0z M10.5,18.2c-4.5,0-8.2-3.7-8.2-8.2S6,1.8,10.5,1.8
		s8.2,3.7,8.2,8.2S15,18.2,10.5,18.2z"/>
	<path d="M11.4,9.2l0-2.3C11.6,6.9,11.8,7,11.9,7L12,7L11.9,7l0,0c0.2,0.1,0.3,0.3,0.3,0.4l0,0c0,0.2,0.1,0.4,0.3,0.6l0,0l0,0
		c0.2,0.2,0.4,0.2,0.6,0.2c0.3,0,0.5-0.1,0.7-0.3l0,0l0,0c0.2-0.2,0.3-0.4,0.3-0.7c0-0.7-0.3-1.2-0.8-1.6l0,0c0,0,0,0,0,0
		c0,0,0,0,0,0l0,0c-0.5-0.4-1.1-0.6-1.8-0.7V4.8c0-0.3-0.1-0.5-0.3-0.7l0,0c0,0,0,0,0,0c0,0,0,0,0,0l0,0C11,4,10.8,3.9,10.5,3.9
		c-0.3,0-0.5,0.1-0.7,0.3l0,0C9.7,4.4,9.6,4.6,9.6,4.8v0.1C8.8,5.1,8.2,5.4,7.7,5.9l0,0c0,0,0,0,0,0c0,0,0,0,0,0l0,0
		C7.2,6.4,6.9,7,6.9,7.8c0,0.8,0.3,1.4,0.8,1.9l0.2-0.2l0,0l0,0L7.7,9.6l0,0c0.5,0.4,1.1,0.8,1.9,1l-0.1,2.7
		c-0.2-0.1-0.4-0.2-0.6-0.3c-0.3-0.2-0.4-0.4-0.5-0.7l0,0l0,0C8.3,12.1,8.2,12,8,11.8c-0.2-0.1-0.4-0.2-0.6-0.2
		c-0.3,0-0.5,0.1-0.7,0.3c-0.2,0.2-0.3,0.4-0.3,0.7c0,0.2,0.1,0.4,0.2,0.7l0.2-0.1v0l0,0l-0.2,0.1l0,0c0.2,0.5,0.6,1,1.2,1.3v0l0,0
		c0.5,0.3,1.1,0.5,1.7,0.6v0.1c0,0.3,0.1,0.5,0.3,0.7c0.2,0.2,0.4,0.3,0.7,0.3c0.3,0,0.5-0.1,0.7-0.3l0,0c0,0,0,0,0,0c0,0,0,0,0,0
		l0,0c0.2-0.2,0.3-0.4,0.3-0.7v-0.2c0.7-0.2,1.4-0.5,1.9-1c0.6-0.6,0.9-1.3,0.9-2c0-0.7-0.3-1.3-0.7-1.9C12.9,9.8,12.3,9.5,11.4,9.2
		z M12.2,11.5L12.2,11.5L12,11.7c0.2,0.2,0.2,0.4,0.2,0.6c0,0.2-0.1,0.5-0.3,0.7l0.1,0.1L11.9,13l0,0l0.2,0.2l0,0L11.9,13
		c-0.1,0.1-0.3,0.3-0.5,0.3l0-2c0.3,0.1,0.5,0.3,0.6,0.4L12.2,11.5L12.2,11.5z M9.1,7.1L9.1,7.1C9.2,7,9.4,6.9,9.6,6.8l0,1.7
		C9.4,8.4,9.2,8.3,9.1,8.2C8.9,8,8.8,7.9,8.8,7.7C8.8,7.4,8.9,7.3,9.1,7.1z M8.9,8.4L8.9,8.4L8.9,8.4L8.9,8.4z M8.8,13.3L8.8,13.3
		L8.8,13.3L8.8,13.3z M12.4,7.4L12.4,7.4L12.4,7.4L12.4,7.4z M13.1,5.8L13.1,5.8L13.1,5.8L13.1,5.8z M11,4.3L11,4.3L11,4.3L11,4.3z
		 M7.9,6L7.9,6L7.9,6L7.9,6z M8.2,12.4L8.2,12.4L8.2,12.4L8.2,12.4z M10.9,15.9L10.9,15.9L10.9,15.9L10.9,15.9L10.9,15.9z"/>
	<polygon points="12,11.7 12.2,11.5 12,11.7 	"/>
</g>
</svg>
