<?xml version="1.0" encoding="utf-8"?>
<!-- Generator: Adobe Illustrator 26.0.1, SVG Export Plug-In . SVG Version: 6.00 Build 0)  -->
<svg version="1.1" id="Слой_1" xmlns="http://www.w3.org/2000/svg" xmlns:xlink="http://www.w3.org/1999/xlink" x="0px" y="0px"
	 viewBox="0 0 20 20" style="enable-background:new 0 0 20 20;" xml:space="preserve">
<g>
	<path d="M13,0H7C3.1,0,0,3.1,0,7v6c0,3.9,3.1,7,7,7h6c3.9,0,7-3.1,7-7V7C20,3.1,16.9,0,13,0z M13,18H7c-1.8,0-3.3-0.9-4.2-2.3
		C4,15,6.1,14,8,14c2,0,4.3,1.1,5.4,1.8c0.2,0.1,0.4,0.2,0.6,0.2c0.3,0,0.6-0.2,0.8-0.4c0.3-0.5,0.2-1.1-0.3-1.4
		C13.3,13.4,10.6,12,8,12c-2.2,0-4.5,1-5.9,1.8C2,13.5,2,13.3,2,13V7c0-2.8,2.2-5,5-5h6c2.8,0,5,2.2,5,5v2.3C17.5,8.5,16.5,8,15.5,8
		c-1.7,0-3,1.3-3,3s1.3,3,3,3c1,0,2-0.5,2.5-1.3V13C18,15.8,15.8,18,13,18z M16.5,11c0,0.6-0.4,1-1,1s-1-0.4-1-1c0-0.6,0.4-1,1-1
		S16.5,10.4,16.5,11z"/>
	<path d="M12,8c0-2.2-1.8-4-4-4S4,5.8,4,8s1.8,4,4,4S12,10.2,12,8z M8,10c-1.1,0-2-0.9-2-2s0.9-2,2-2s2,0.9,2,2S9.1,10,8,10z"/>
</g>
</svg>
