<?xml version="1.0" encoding="utf-8"?>
<!-- Generator: Adobe Illustrator 26.0.1, SVG Export Plug-In . SVG Version: 6.00 Build 0)  -->
<svg version="1.1" id="Слой_1" xmlns="http://www.w3.org/2000/svg" xmlns:xlink="http://www.w3.org/1999/xlink" x="0px" y="0px"
	 viewBox="0 0 20 20" style="enable-background:new 0 0 20 20;" xml:space="preserve">
<g>
	<path d="M13,0H7C3.1,0,0,3.1,0,7v6c0,3.9,3.1,7,7,7h6c3.9,0,7-3.1,7-7V7C20,3.1,16.9,0,13,0z M18,13c0,2.8-2.2,5-5,5H7
		c-2.8,0-5-2.2-5-5V7c0-2.8,2.2-5,5-5h6c2.8,0,5,2.2,5,5V13z"/>
	<circle cx="6.5" cy="7.5" r="1.5"/>
	<circle cx="13.5" cy="7.5" r="1.5"/>
	<path d="M11.7,10.9L10,13.3l-1.7-2.4c-0.3-0.5-0.9-0.6-1.4-0.2c-0.4,0.3-0.6,0.9-0.2,1.4l2.5,3.5C9.4,15.8,9.7,16,10,16
		s0.6-0.2,0.8-0.4l2.5-3.5c0.3-0.4,0.2-1.1-0.2-1.4C12.6,10.4,12,10.5,11.7,10.9z"/>
</g>
</svg>
