<?xml version="1.0" encoding="utf-8"?>
<!-- Generator: Adobe Illustrator 26.0.1, SVG Export Plug-In . SVG Version: 6.00 Build 0)  -->
<svg version="1.1" id="Слой_1" xmlns="http://www.w3.org/2000/svg" xmlns:xlink="http://www.w3.org/1999/xlink" x="0px" y="0px"
	 viewBox="0 0 21 20" style="enable-background:new 0 0 21 20;" xml:space="preserve">
<g>
	<path d="M13.5,0h-6c-3.9,0-7,3.1-7,7v6c0,3.9,3.1,7,7,7h6c3.9,0,7-3.1,7-7V7C20.5,3.1,17.4,0,13.5,0z M18.5,13c0,2.8-2.2,5-5,5h-6
		c-2.8,0-5-2.2-5-5V7c0-2.8,2.2-5,5-5h6c2.8,0,5,2.2,5,5V13z"/>
	<path d="M15,6.5H6c-0.6,0-1,0.4-1,1s0.4,1,1,1h9c0.6,0,1-0.4,1-1S15.6,6.5,15,6.5z"/>
	<path d="M15,11.5H6c-0.6,0-1,0.4-1,1s0.4,1,1,1h9c0.6,0,1-0.4,1-1S15.6,11.5,15,11.5z"/>
</g>
</svg>
