<?xml version="1.0" encoding="utf-8"?>
<!-- Generator: Adobe Illustrator 26.0.1, SVG Export Plug-In . SVG Version: 6.00 Build 0)  -->
<svg version="1.1" id="Слой_1" xmlns="http://www.w3.org/2000/svg" xmlns:xlink="http://www.w3.org/1999/xlink" x="0px" y="0px"
	 viewBox="0 0 12 10" style="enable-background:new 0 0 12 10;" xml:space="preserve">
<path d="M11,8.4c-1-0.8-2-1.6-3.1-2.3C7.4,5.7,6.8,5.4,6.3,4.9c1.5-1.2,3.2-2.3,4.7-3.3c0.4-0.2,0.5-0.7,0.3-1.1
	c-0.2-0.4-0.7-0.5-1.1-0.3C9.2,0.9,7,2.3,4.9,3.9C3.8,3,2.7,1.9,1.6,0.5C1.4,0.2,0.9,0.1,0.5,0.4C0.2,0.6,0.1,1.1,0.4,1.5
	C1.4,2.9,2.5,4,3.7,5C2,6.3,0.6,7.7,0.2,8.7c-0.2,0.4,0.1,0.9,0.5,1c0.1,0,0.2,0,0.3,0c0.3,0,0.6-0.2,0.8-0.5C2,8.6,3.3,7.4,5,6
	C5.7,6.5,6.3,7,7,7.4c1,0.7,2,1.4,3,2.2c0.1,0.1,0.3,0.2,0.5,0.2c0.2,0,0.5-0.1,0.6-0.3C11.4,9.2,11.4,8.7,11,8.4z"/>
</svg>
