<?xml version="1.0" encoding="utf-8"?>
<!-- Generator: Adobe Illustrator 26.0.1, SVG Export Plug-In . SVG Version: 6.00 Build 0)  -->
<svg version="1.1" id="Слой_1" xmlns="http://www.w3.org/2000/svg" xmlns:xlink="http://www.w3.org/1999/xlink" x="0px" y="0px"
	 viewBox="0 0 12 10" style="enable-background:new 0 0 12 10;" xml:space="preserve">
<path d="M11.2,0.6c-0.2-0.4-0.7-0.5-1.1-0.3c-2.8,1.7-4.8,5-5.8,7.2l-2.7-3C1.3,4.1,0.8,4.1,0.5,4.4S0.1,5.2,0.4,5.5l3.5,4
	c0.2,0.2,0.4,0.3,0.6,0.3c0,0,0.1,0,0.1,0c0.3-0.1,0.5-0.2,0.6-0.5c0.7-1.8,2.7-5.7,5.7-7.6C11.3,1.4,11.4,1,11.2,0.6z"/>
</svg>
