<svg viewBox="0 0 375 172" fill="none" xmlns="http://www.w3.org/2000/svg">
<path d="M107.796 28.3725C110.025 32.7424 111.635 37.7178 112.628 43.2925C113.989 52.5316 114.301 62.5823 113.558 73.4632C112.815 84.3379 110.955 95.1439 107.977 105.863C105 116.587 100.943 126.707 95.7992 136.214C90.6558 145.728 84.3326 153.8 76.8359 160.436C71.7549 164.337 66.4242 166.959 60.8438 168.289C55.2634 169.619 48.8528 169.918 41.5996 169.169C36.7682 168.67 31.8058 167.883 26.7248 166.797C21.6438 165.711 17.0247 164.088 12.8737 161.915C9.46555 160.117 6.10109 157.826 2.78656 155.036C-0.527964 152.245 -3.14962 149.087 -5.06593 145.553C-8.09956 139.729 -10.3779 133.124 -11.901 125.752C-13.4115 118.385 -14.1106 110.638 -13.9858 102.517C-13.861 94.3948 -12.9184 86.1046 -11.1519 77.6458C-9.38542 69.187 -6.78249 60.9592 -3.34312 52.9623C0.096241 44.9655 4.32835 37.3869 9.34695 30.2329C14.3656 23.0725 20.1582 16.6426 26.731 10.9431C31.1941 7.53458 36.5061 4.93139 42.6732 3.13351C48.8404 1.33563 54.7141 0.904884 60.2883 1.8288C67.5415 2.94623 74.4203 4.7129 80.9245 7.12881C87.4349 9.54471 92.853 12.46 97.1912 15.8685C102.023 19.8326 105.556 24.0027 107.79 28.3725H107.796ZM57.5979 38.2796C54.3146 41.3822 51.0126 45.596 47.6981 50.921C44.3835 56.2522 41.3 62.189 38.4474 68.725C35.5947 75.2673 33.3039 81.5724 31.5686 87.6465C29.7709 93.5958 28.4851 99.776 27.711 106.193C26.937 112.611 26.6749 118.573 26.9183 124.091C27.168 129.61 28.0668 134.335 29.6149 138.268C31.1629 142.207 33.3913 144.636 36.3063 145.566C38.9717 146.434 41.7619 145.859 44.6707 143.843C47.5857 141.826 50.4945 138.718 53.4095 134.498C56.3246 130.284 59.0773 125.109 61.6802 118.972C64.2832 112.836 66.5428 106.143 68.4653 98.8895C70.0758 92.9403 71.3929 86.373 72.4166 79.1815C73.4402 71.9899 73.9521 65.2978 73.9521 59.0989C73.9521 52.8999 73.3466 47.3564 72.1419 42.8305C70.9309 38.3046 69.0583 35.6702 66.5178 34.9273C63.8525 34.0596 60.875 35.177 57.5917 38.2734L57.5979 38.2796Z" fill="url(#paint0_linear_221_2035)"/>
<path d="M168.263 91.0863C172.133 81.9782 175.947 73.1574 179.698 64.6361C183.45 56.1149 186.933 48.3678 190.154 41.3948C193.375 34.4217 196.009 29.2965 198.056 26.0066C199.604 23.2161 201.296 21.437 203.125 20.6629C204.954 19.8888 207.725 19.9325 211.445 20.8002C215.103 21.6055 218.168 22.4421 220.646 23.3098C223.124 24.1775 226.07 25.3262 229.479 26.7495C231.401 27.4924 232.837 28.254 233.804 29.0281C234.766 29.8021 235.465 30.6886 235.895 31.6749C236.326 32.6675 236.576 33.8786 236.638 35.3019C236.701 36.7252 236.732 38.3671 236.732 40.2274C236.732 42.3998 236.545 46.083 236.176 51.2894C235.802 56.4957 235.352 62.5823 234.828 69.5554C234.304 76.5284 233.761 83.9509 233.199 91.8229C232.643 99.6949 232.113 107.38 231.62 114.877C234.285 108.678 237.163 102.111 240.265 95.169C243.361 88.2271 246.494 81.2728 249.653 74.2998C252.811 67.3267 255.957 60.5098 259.091 53.8488C262.218 47.1879 265.146 40.939 267.873 35.1146C270.601 29.2902 273.061 24.0527 275.264 19.4019C277.461 14.7511 279.34 10.9743 280.888 8.05899C282.811 4.15109 284.714 1.9724 286.606 1.5042C288.497 1.04225 291.487 1.64154 295.576 3.31457C298.491 4.67547 301.368 6.22989 304.221 7.96535C307.073 9.7008 309.826 11.6548 312.491 13.821C315.407 16.6114 316.799 19.5829 316.674 22.7479C316.549 25.9067 315.712 29.1342 314.164 32.4178C311.006 38.2422 307.517 44.9094 303.709 52.4068C299.895 59.9042 296.025 67.7138 292.086 75.8355C288.148 83.9572 284.184 92.2474 280.189 100.706C276.194 109.165 272.393 117.362 268.803 125.296C265.208 133.23 261.812 140.684 258.623 147.657C255.433 154.63 252.686 160.717 250.396 165.923C249.153 168.339 247.449 169.856 245.283 170.48C243.111 171.098 240.015 171.098 235.989 170.48C233.698 170.106 231.726 169.706 230.084 169.269C228.442 168.832 226.876 168.414 225.39 168.014C223.904 167.609 222.431 167.19 220.977 166.76C219.522 166.323 217.925 165.923 216.189 165.549C212.594 164.244 210.041 162.496 208.518 160.299C207.001 158.101 205.99 155.666 205.497 153.001C205.122 150.335 204.641 147.095 204.055 143.287C203.468 139.473 202.925 135.309 202.426 130.783C201.926 126.257 201.464 121.657 201.034 116.975C200.597 112.293 200.384 107.723 200.384 103.259C197.469 108.84 194.479 114.646 191.415 120.689C188.35 126.732 185.447 132.606 182.726 138.306C179.998 144.011 177.501 149.305 175.241 154.206C172.976 159.1 171.134 163.133 169.711 166.291C168.163 168.832 166.534 170.318 164.83 170.755C163.126 171.186 160.816 171.217 157.907 170.849C154 170.231 150.236 169.438 146.615 168.476C142.989 167.515 139.537 166.541 136.247 165.549C133.145 164.494 130.935 163.114 129.6 161.41C128.264 159.705 127.415 157.084 127.04 153.556C126.048 148.35 125.137 142.351 124.3 135.565C123.464 128.779 122.733 121.513 122.115 113.766C121.497 105.644 120.923 97.1416 120.393 88.2459C119.868 79.3501 119.419 70.4855 119.044 61.6584C118.67 52.825 118.426 44.1977 118.302 35.7639C118.177 27.3363 118.114 19.4955 118.114 12.2416C118.239 8.21505 118.994 5.62435 120.393 4.4757C121.785 3.32706 124.531 3.18972 128.62 4.05745C133.27 5.05003 137.496 6.08631 141.31 7.17253C145.124 8.25875 148.7 9.76323 152.046 11.6797C153.906 12.7972 155.404 14.1893 156.553 15.8623C157.701 17.5353 158.569 19.2895 159.156 21.1124C159.742 22.9415 160.098 24.8455 160.223 26.8306C160.348 28.8158 160.348 30.6137 160.223 32.2243C160.098 35.5079 159.867 40.3273 159.524 46.6823C159.181 53.0373 158.856 60.1165 158.55 67.926C158.238 75.7356 157.995 83.8698 157.807 92.3285C157.62 100.787 157.527 108.803 157.527 116.363C160.81 108.616 164.387 100.188 168.263 91.0738V91.0863Z" fill="url(#paint1_linear_221_2035)"/>
<path d="M357.534 163.183C349.076 164.762 341.061 166.298 333.502 167.783C330.65 168.589 328.278 169.051 326.393 169.176C324.501 169.3 322.86 169.207 321.468 168.895C320.076 168.582 318.896 168.164 317.935 167.64C316.973 167.115 316.062 166.541 315.194 165.917C313.022 164.494 311.056 163.051 309.289 161.591C307.523 160.136 305.182 158.257 302.273 155.966C300.107 154.231 298.447 152.245 297.298 150.017C296.15 147.788 295.825 145.091 296.325 141.926C296.699 136.97 297.33 131.095 298.228 124.31C299.127 117.524 300.213 110.195 301.481 102.323C302.754 94.451 304.146 86.3044 305.663 77.8705C307.18 69.443 308.821 61.0279 310.588 52.6315C312.354 44.2351 314.164 36.1634 316.025 28.41C317.885 20.6629 319.714 13.565 321.511 7.12257C322.747 3.40195 324.345 1.20454 326.299 0.524087C328.253 -0.156362 331.211 0.0621307 335.175 1.17332C339.076 2.22833 343.321 3.67038 347.909 5.49948C352.497 7.32858 356.492 9.38865 359.9 11.6797C363.183 14.0956 365.243 16.1869 366.079 17.9536C366.916 19.7202 366.779 22.2797 365.661 25.6258C363.121 33.1856 360.549 41.5383 357.946 50.6838C355.343 59.8293 352.74 69.2307 350.137 78.9006C347.534 88.5704 345.056 98.1903 342.703 107.767C340.35 117.343 338.146 126.501 336.105 135.24C341.929 134.248 347.385 133.493 352.466 132.962C357.547 132.438 363.096 131.988 369.107 131.614C372.64 131.364 375.318 131.601 377.147 132.313C378.976 133.024 380.661 134.591 382.215 137.007C383.701 139.236 384.924 141.533 385.885 143.887C386.847 146.24 387.571 148.506 388.07 150.672C389 153.338 389.231 155.123 388.769 156.016C388.307 156.915 386.123 157.739 382.215 158.482C374.219 160.03 365.992 161.597 357.534 163.176V163.183Z" fill="url(#paint2_linear_221_2035)"/>
<defs>
<linearGradient id="paint0_linear_221_2035" x1="49.9752" y1="1.35669" x2="49.9752" y2="169.571" gradientUnits="userSpaceOnUse">
<stop stop-color="#0A101F"/>
<stop offset="1" stop-color="#1C2B4A"/>
</linearGradient>
<linearGradient id="paint1_linear_221_2035" x1="217.398" y1="1.35352" x2="217.398" y2="171.103" gradientUnits="userSpaceOnUse">
<stop stop-color="#0A101F"/>
<stop offset="1" stop-color="#1C2B4A"/>
</linearGradient>
<linearGradient id="paint2_linear_221_2035" x1="342.549" y1="0.137451" x2="342.549" y2="169.229" gradientUnits="userSpaceOnUse">
<stop stop-color="#0A101F"/>
<stop offset="1" stop-color="#1C2B4A"/>
</linearGradient>
</defs>
</svg>
